<svg width="444" height="254" viewBox="0 0 444 254" fill="none" xmlns="http://www.w3.org/2000/svg">
<path d="M397.09 88.09C385.79 88.09 374.49 88.13 363.19 88.08C352.03 88.03 344.33 94.1 339.98 103.39C332.45 119.45 327.19 136.4 327.84 154.43C328.09 161.33 328.91 168.58 331.38 174.93C334.67 183.38 334.01 191.16 329.89 198.4C324.43 207.98 320.3 217.97 316.16 228.16C312.81 236.42 307.81 245.04 299.83 250.12C295.8 252.68 290.23 253.27 285.26 253.77C282.1 254.09 278.75 252.68 275.52 251.9C268.3 250.17 266.3 247.33 269.15 240.43C273.33 230.31 278.26 220.48 283.18 210.69C285.11 206.85 287.72 203.31 290.28 199.83C294.43 194.18 295.98 187.92 295.58 181.02C295.24 175.13 292.64 171.79 286.93 170.27C286.77 170.23 286.6 170.2 286.44 170.17C281.45 169.38 275.34 166.41 271.71 168.27C264.38 172.02 258.35 178.34 251.89 183.73C248.61 186.47 246.01 190.35 242.34 192.22C231.1 197.95 219.63 203.29 207.98 208.14C200.13 211.41 193.72 215.16 190.93 224.08C189.02 230.18 185.27 235.72 182.16 241.42C178.36 248.38 172.64 253.64 164.64 253.71C157.65 253.77 150.58 251.89 143.7 250.21C142.41 249.9 140.74 246.16 141.19 244.56C143.15 237.61 145.11 230.49 148.43 224.14C153.73 213.99 160.75 204.71 165.76 194.44C168.07 189.71 167.93 183.49 167.81 177.98C167.71 173.42 163.48 171.58 159.57 170.32C156.74 169.41 153.72 169.03 150.92 168.05C141.02 164.58 132.08 164.93 124.39 173.23C119.81 178.17 115.05 183.09 109.71 187.15C103.66 191.75 97.2901 196.37 90.3401 199.23C76.5301 204.91 62.2501 209.48 48.1101 214.35C40.4201 216.99 32.6301 219.35 24.8601 221.74C16.9101 224.19 9.83009 220.63 2.92009 217.75C-0.719907 216.24 -0.929907 212.02 1.85009 209.29C4.61009 206.58 8.24009 204.74 11.5601 202.62C16.8501 199.24 22.1301 195.83 27.5401 192.64C32.4901 189.72 37.6401 187.12 42.6301 184.27C44.6201 183.13 46.7901 181.99 48.2801 180.32C54.3701 173.49 59.8201 166.04 66.2901 159.62C72.0401 153.91 79.5301 149.91 84.9701 143.97C91.8001 136.5 101.16 131.03 103.21 119.39C104.69 111.01 108.58 103.03 111.69 94.99C113.04 91.51 112.25 88.59 109.28 87.35C105.09 85.6 100.11 83.27 96.0701 84.1C84.7501 86.43 73.7001 90.1 62.6401 93.57C58.3801 94.91 54.4601 97.3 50.2701 98.91C48.1501 99.73 45.7601 99.81 43.5201 100.36C41.1601 100.94 38.3301 101.04 36.5801 102.44C28.2001 109.15 17.2701 104.77 10.8201 98.5C7.83009 95.6 10.1801 92.33 12.0301 89.52C14.1001 86.36 16.4301 83.36 18.2801 80.08C22.1601 73.21 28.1501 69.07 35.1201 65.86C39.4401 63.87 43.5101 61.36 47.7001 59.1C48.5701 58.63 49.4201 58.06 50.3601 57.82C63.3701 54.59 76.4301 51.51 89.4101 48.16C94.3801 46.88 99.1401 44.74 104.11 43.47C109.22 42.16 114.47 41.39 119.67 40.46C126.63 39.22 133.68 38.36 140.54 36.7C142.52 36.22 144.43 33.77 145.49 31.75C146.42 29.97 146.29 27.54 146.33 25.39C146.66 9.58001 156.39 0.150007 172.15 7.32951e-06C180.16 -0.0699927 187.82 0.410007 194 6.30001C194.9 7.16001 196.26 8.41001 196.14 9.32001C195.32 15.65 195.71 22.25 190.86 27.63C188.73 29.99 186.28 33.96 186.9 36.47C188.04 41.05 193.18 40.86 197.1 40.51C208.76 39.46 219.86 40.96 230.87 45.2C234.04 46.42 238.5 44.34 242.35 43.71C249.37 42.57 256.39 41.45 263.39 40.18C265.81 39.74 268.21 39.04 270.53 38.21C274.73 36.7 275.67 33.47 275 29.36C271.99 11.1 281.66 0.0900073 300.44 0.0500073C307.74 0.0400073 314.92 0.150007 320.34 5.94001C321.67 7.36001 322.94 9.60001 322.89 11.42C322.74 17.2 322.58 23.11 318.09 27.76C316.86 29.03 316.13 30.85 315.35 32.5C313.24 36.95 313.96 39.54 318.54 41.02C323.56 42.65 328.85 43.42 334.01 44.64C343.01 46.76 352.01 48.9 360.99 51.1C380.04 55.77 398.8 61.75 418.78 61.76C424.62 61.76 430.58 63.4 436.25 65.1C441.73 66.75 443.37 70.77 443 77.46C442.7 82.79 439.55 85.33 434.82 85.93C422.3 87.51 409.75 88.81 397.21 90.22C397.17 89.51 397.13 88.8 397.1 88.09H397.09ZM177.83 97.87L177.26 98.05C179.17 107.73 180.2 117.71 183.25 127.02C186.12 135.77 190.81 143.99 195.27 152.13C199.59 159.99 203.83 160.65 211.32 155.49C212.95 154.36 214.52 153.08 215.9 151.66C224.81 142.51 233.97 133.58 242.44 124.04C249.18 116.45 253.31 107.4 252.88 96.87C252.53 88.54 245.86 82.44 238.39 82.99C230.86 83.54 224.12 86.23 218.05 90.38C214.44 92.85 212.48 92.5 209.87 89.06C204.43 81.89 197.66 76.81 187.91 77.68C182.68 78.15 179.68 80.73 178.94 86.01C178.39 89.94 178.18 93.93 177.82 97.89L177.83 97.87Z" fill="white"/>
</svg>
