<?xml version="1.0" encoding="UTF-8"?><svg id="b" xmlns="http://www.w3.org/2000/svg" viewBox="0 0 443.05 253.81"><g id="c"><path d="M397.09,88.09c-11.3,0-22.6,.04-33.9-.01-11.16-.05-18.86,6.02-23.21,15.31-7.53,16.06-12.79,33.01-12.14,51.04,.25,6.9,1.07,14.15,3.54,20.5,3.29,8.45,2.63,16.23-1.49,23.47-5.46,9.58-9.59,19.57-13.73,29.76-3.35,8.26-8.35,16.88-16.33,21.96-4.03,2.56-9.6,3.15-14.57,3.65-3.16,.32-6.51-1.09-9.74-1.87-7.22-1.73-9.22-4.57-6.37-11.47,4.18-10.12,9.11-19.95,14.03-29.74,1.93-3.84,4.54-7.38,7.1-10.86,4.15-5.65,5.7-11.91,5.3-18.81-.34-5.89-2.94-9.23-8.65-10.75-.16-.04-.33-.07-.49-.1-4.99-.79-11.1-3.76-14.73-1.9-7.33,3.75-13.36,10.07-19.82,15.46-3.28,2.74-5.88,6.62-9.55,8.49-11.24,5.73-22.71,11.07-34.36,15.92-7.85,3.27-14.26,7.02-17.05,15.94-1.91,6.1-5.66,11.64-8.77,17.34-3.8,6.96-9.52,12.22-17.52,12.29-6.99,.06-14.06-1.82-20.94-3.5-1.29-.31-2.96-4.05-2.51-5.65,1.96-6.95,3.92-14.07,7.24-20.42,5.3-10.15,12.32-19.43,17.33-29.7,2.31-4.73,2.17-10.95,2.05-16.46-.1-4.56-4.33-6.4-8.24-7.66-2.83-.91-5.85-1.29-8.65-2.27-9.9-3.47-18.84-3.12-26.53,5.18-4.58,4.94-9.34,9.86-14.68,13.92-6.05,4.6-12.42,9.22-19.37,12.08-13.81,5.68-28.09,10.25-42.23,15.12-7.69,2.64-15.48,5-23.25,7.39-7.95,2.45-15.03-1.11-21.94-3.99-3.64-1.51-3.85-5.73-1.07-8.46,2.76-2.71,6.39-4.55,9.71-6.67,5.29-3.38,10.57-6.79,15.98-9.98,4.95-2.92,10.1-5.52,15.09-8.37,1.99-1.14,4.16-2.28,5.65-3.95,6.09-6.83,11.54-14.28,18.01-20.7,5.75-5.71,13.24-9.71,18.68-15.65,6.83-7.47,16.19-12.94,18.24-24.58,1.48-8.38,5.37-16.36,8.48-24.4,1.35-3.48,.56-6.4-2.41-7.64-4.19-1.75-9.17-4.08-13.21-3.25-11.32,2.33-22.37,6-33.43,9.47-4.26,1.34-8.18,3.73-12.37,5.34-2.12,.82-4.51,.9-6.75,1.45-2.36,.58-5.19,.68-6.94,2.08-8.38,6.71-19.31,2.33-25.76-3.94-2.99-2.9-.64-6.17,1.21-8.98,2.07-3.16,4.4-6.16,6.25-9.44,3.88-6.87,9.87-11.01,16.84-14.22,4.32-1.99,8.39-4.5,12.58-6.76,.87-.47,1.72-1.04,2.66-1.28,13.01-3.23,26.07-6.31,39.05-9.66,4.97-1.28,9.73-3.42,14.7-4.69,5.11-1.31,10.36-2.08,15.56-3.01,6.96-1.24,14.01-2.1,20.87-3.76,1.98-.48,3.89-2.93,4.95-4.95,.93-1.78,.8-4.21,.84-6.36C146.66,9.58,156.39,.15,172.15,0c8.01-.07,15.67,.41,21.85,6.3,.9,.86,2.26,2.11,2.14,3.02-.82,6.33-.43,12.93-5.28,18.31-2.13,2.36-4.58,6.33-3.96,8.84,1.14,4.58,6.28,4.39,10.2,4.04,11.66-1.05,22.76,.45,33.77,4.69,3.17,1.22,7.63-.86,11.48-1.49,7.02-1.14,14.04-2.26,21.04-3.53,2.42-.44,4.82-1.14,7.14-1.97,4.2-1.51,5.14-4.74,4.47-8.85C271.99,11.1,281.66,.09,300.44,.05c7.3-.01,14.48,.1,19.9,5.89,1.33,1.42,2.6,3.66,2.55,5.48-.15,5.78-.31,11.69-4.8,16.34-1.23,1.27-1.96,3.09-2.74,4.74-2.11,4.45-1.39,7.04,3.19,8.52,5.02,1.63,10.31,2.4,15.47,3.62,9,2.12,18,4.26,26.98,6.46,19.05,4.67,37.81,10.65,57.79,10.66,5.84,0,11.8,1.64,17.47,3.34,5.48,1.65,7.12,5.67,6.75,12.36-.3,5.33-3.45,7.87-8.18,8.47-12.52,1.58-25.07,2.88-37.61,4.29-.04-.71-.08-1.42-.11-2.13Zm-219.26,9.78l-.57,.18c1.91,9.68,2.94,19.66,5.99,28.97,2.87,8.75,7.56,16.97,12.02,25.11,4.32,7.86,8.56,8.52,16.05,3.36,1.63-1.13,3.2-2.41,4.58-3.83,8.91-9.15,18.07-18.08,26.54-27.62,6.74-7.59,10.87-16.64,10.44-27.17-.35-8.33-7.02-14.43-14.49-13.88-7.53,.55-14.27,3.24-20.34,7.39-3.61,2.47-5.57,2.12-8.18-1.32-5.44-7.17-12.21-12.25-21.96-11.38-5.23,.47-8.23,3.05-8.97,8.33-.55,3.93-.76,7.92-1.12,11.88Z" fill="#1b1b1b"/></g></svg>