<svg width="32" height="28" viewBox="0 0 32 28" fill="none" xmlns="http://www.w3.org/2000/svg">
<path d="M14.2044 1.53172C14.5221 0.74986 14.9977 0.431465 15.8427 0.442154C16.6383 0.452462 17.1219 0.793 17.4079 1.54661C18.959 1.67107 20.476 1.95663 21.9266 2.54532C23.5358 3.19814 24.9404 4.14264 26.0633 5.47386C27.0719 6.66956 27.7207 8.05042 28.0908 9.5649C28.3232 10.5151 28.4597 11.4791 28.4796 12.4576C28.483 12.6198 28.5343 12.7084 28.6887 12.7893C30.0976 13.5261 30.907 14.6959 31.1497 16.2588C31.3241 17.3816 31.2384 18.4803 30.819 19.5447C30.3209 20.8084 29.4186 21.6311 28.1156 22.0136C27.9925 22.0499 27.9157 22.1041 27.8541 22.2243C27.0616 23.7755 25.8534 24.928 24.3604 25.7927C23.0063 26.5773 21.5351 27.0392 20.002 27.3274C18.2421 27.6581 16.464 27.723 14.6839 27.66C12.6231 27.5874 10.5991 27.2793 8.67566 26.483C7.24845 25.8924 5.97761 25.0746 4.93807 23.9217C4.47737 23.4105 4.08473 22.8501 3.77811 22.2335C3.72038 22.1171 3.64582 22.0548 3.52233 22.0155C2.72175 21.7609 2.00604 21.3719 1.47652 20.6954C1.00359 20.0914 0.700408 19.4096 0.547479 18.6621C0.321527 17.5568 0.329173 16.4558 0.695438 15.3796C1.0942 14.2083 1.87223 13.3532 2.96452 12.7813C3.0796 12.721 3.12625 12.6614 3.13236 12.5263C3.20768 10.9186 3.44816 9.34385 4.0962 7.85343C5.10285 5.53915 6.79004 3.89181 9.0576 2.81943C10.2531 2.25403 11.5094 1.88104 12.8219 1.70352C13.2804 1.64129 13.7399 1.58784 14.204 1.52981L14.2044 1.53172ZM10.9505 10.6823C10.9707 10.5002 10.9792 10.3475 11.0059 10.1982C11.2743 8.71737 12.0867 7.64345 13.4734 7.05515C14.901 6.44966 16.3772 6.43287 17.8384 6.92535C19.0573 7.33651 19.9255 8.16266 20.3828 9.37363C20.5395 9.78823 20.6125 10.2341 20.7284 10.6827C22.8575 10.9309 25.02 11.1679 27.1575 11.8967C27.0424 11.2363 26.9706 10.6136 26.8218 10.0097C26.1925 7.44761 24.7397 5.50631 22.3819 4.27893C20.4982 3.29816 18.4673 2.89349 16.3626 2.81943C15.3197 2.78278 14.2797 2.83737 13.2448 3.00077C11.9881 3.1989 10.7777 3.54059 9.62726 4.08308C7.76688 4.96 6.34005 6.28321 5.4435 8.15121C4.99695 9.08196 4.7278 10.0635 4.58137 11.0809C4.5439 11.3409 4.52784 11.6039 4.50031 11.8799C6.60768 11.1744 8.77315 10.9076 10.9505 10.6823ZM15.8029 12.0342C13.9685 12.0437 12.1364 12.0926 10.3116 12.2835C9.22085 12.3976 8.12626 12.4961 7.0462 12.679C6.285 12.8076 5.54558 13.0661 4.79585 13.2658C4.68842 13.2944 4.63642 13.3532 4.60392 13.4685C4.31795 14.4859 4.18528 15.5232 4.14705 16.5776C4.10346 17.7825 4.19943 18.9709 4.50184 20.1399C4.80426 21.307 5.3334 22.3541 6.18521 23.2196C7.08634 24.1355 8.17749 24.7597 9.36422 25.2262C11.0904 25.9046 12.9019 26.1443 14.7378 26.2096C16.4173 26.2692 18.0942 26.2203 19.755 25.9157C21.0369 25.6805 22.2726 25.3117 23.4291 24.7005C24.4182 24.1779 25.2941 23.5193 25.967 22.6122C26.9407 21.2989 27.3009 19.7825 27.4385 18.194C27.5112 17.356 27.4836 16.5184 27.4068 15.6804C27.3384 14.9356 27.2283 14.2007 27.0271 13.4792C26.9939 13.3593 26.9388 13.3016 26.8283 13.2577C25.9773 12.9195 25.0884 12.7221 24.1873 12.5954C23.2708 12.4663 22.3498 12.3682 21.428 12.2846C20.5288 12.2029 19.6277 12.1388 18.7258 12.1002C17.7524 12.0582 16.7775 12.0544 15.8029 12.0342ZM19.2067 10.5674C19.081 9.54924 18.4513 8.70515 17.4878 8.3043C16.6341 7.94925 15.7456 7.93627 14.8502 8.08516C13.4834 8.31269 12.5884 9.26826 12.437 10.567L19.2067 10.5674ZM3.12051 20.3396C2.67205 18.3467 2.68619 16.3611 3.02111 14.3519C1.1936 15.6373 1.25516 19.2733 3.12051 20.3396ZM28.6253 14.3958C28.9491 16.405 28.9506 18.3719 28.5243 20.3357C29.5719 19.6352 29.9179 18.6033 29.9343 17.4152C29.9508 16.2287 29.6308 15.1853 28.6253 14.3958Z" fill="white"/>
<path d="M15.4673 13.247C16.9576 13.2863 18.264 13.297 19.5677 13.3619C20.6333 13.415 21.6977 13.5124 22.7582 13.6296C23.3967 13.6998 24.0107 13.8899 24.5349 14.2904C25.1539 14.763 25.4807 15.4201 25.6773 16.1485C25.8895 16.9353 25.9082 17.7381 25.8451 18.5471C25.7969 19.1629 25.6742 19.7596 25.436 20.3307C24.9753 21.4337 24.1094 22.0911 23.0297 22.516C22.1954 22.8443 21.3318 23.0508 20.444 23.1673C18.3936 23.436 16.3348 23.475 14.2718 23.3986C13.6804 23.3769 13.0878 23.3616 12.4982 23.3135C11.0052 23.191 9.52948 22.9821 8.15924 22.3213C6.8689 21.699 6.12528 20.6659 5.876 19.2683C5.67758 18.1562 5.67643 17.0487 5.99299 15.9553C6.38449 14.6023 7.3208 13.8605 8.68493 13.6658C9.60747 13.5341 10.5392 13.4478 11.4702 13.3959C12.8622 13.3188 14.2569 13.2902 15.4673 13.247ZM19.0585 17.9344C19.0486 18.2993 19.1468 18.6933 19.3827 19.0476C19.9348 19.8772 20.9781 20.054 21.6713 19.4366C22.4902 18.7075 22.5931 17.4014 21.8992 16.5482C21.318 15.8339 20.2781 15.7804 19.6312 16.4325C19.2347 16.8318 19.0539 17.3178 19.0585 17.9344ZM12.5716 17.8359C12.5884 17.477 12.4768 17.101 12.26 16.7543C11.7072 15.8702 10.6057 15.6995 9.88275 16.3855C9.13263 17.0968 9.06305 18.42 9.73402 19.206C10.3649 19.9452 11.3287 20.0028 11.9909 19.3423C12.3938 18.9403 12.5781 18.4524 12.5716 17.8359Z" fill="white"/>
</svg>
