<?xml version="1.0" encoding="UTF-8"?><svg id="b" xmlns="http://www.w3.org/2000/svg" viewBox="0 0 129.7 106.26"><g id="c"><g><g><path d="M99.53,49.71c-4.03,8.75-10.78,16.4-19.92,22.12-3.19,2-6.56,3.71-8.54,4.82-18.12,8.05-34.89,9.86-51.56,.62C10.04,72.02,3.1,64.39,.47,53.66c-1.99-8.12,2.49-12.22,10.54-9.97,3.62,1.01,7.19,2.33,10.64,3.84,1.18,.52,2.22,1.91,2.78,3.14,1.23,2.7,2.18,5.52,3.1,8.34,1.16,3.55,3.85,4.99,7.25,5.36,2.03,.22,4.17,.45,6.15,.09,7.69-1.37,15.88-.39,22.94-4.54,2.27-1.33,4.09-3.41,6.15-5.12,.78-.65,1.72-1.12,2.45-1.8,3.99-3.72,8.19-7.24,11.74-11.34,1.15-1.33,1.22-4.41,.6-6.3-1.14-3.42-3.25-6.52-4.78-9.84-.47-1.02-.86-2.53-.45-3.44,2.14-4.79,4.21-9.67,6.97-14.12,3.13-5.04,8.28-4.97,11.72-.09,.99,1.41,1.89,2.96,2.6,4.57l-6.18,25.41c-1.15,4.69,.95,9.43,4.84,11.86Z" fill="#fff"/><path d="M76.85,27.39c-5.82-8.74-11.53-17.55-17.52-26.16-.65-.95-3.3-1.58-4.3-1.03-4.14,2.26-7.94,5.12-11.99,7.57-2.21,1.34-4.54,2.68-7,3.34-3,.81-10.29,2.33-10.83,2.53-5.09,1.88-5.31,2.21-4.06,7.5,1.44,6.12,2.67,12.31,4.57,18.29,1.29,4.07,.24,10.26,5.25,11.5,4.11,1.02,8.95-.87,13.46-1.49,.33-.05,.71-.11,.98-.29,.45-.32,1.01-.66,1.23-1.13,2.67-5.87,8.55-7.14,13.64-7.55,4.07-.32,6.86-1.76,9.76-3.92,1.92-1.43,3.68-3.1,5.69-4.39,2.07-1.33,2.47-2.74,1.12-4.77Zm-41.86,12.23c-.79,.07-2.49-1.22-2.43-1.75,.8-6.61-1.16-12.61-3.65-18.53-.08-.18,0-.38,.15-.48,.72-.42,2.52-1.53,3.34-.04,2.2,4.03,4.69,16.68,4.62,18.58-.03,.81-1.26,2.15-2.03,2.22Zm23.58-19.41c-2.35,.38-3.04-.17-4.78-3.93-1.25-2.7-4.02-5.29-2.17-9.41,.23-.49,.94-.48,1.18,0,2.27,4.49,4.26,8.44,6.26,12.39,.2,.4-.05,.88-.49,.95Z" fill="#fff"/><path d="M30.52,56.12c4.48-.71,8.95-1.44,13.44-2.12,2.19-.33,3.76,.79,3.88,2.81,.05,.82-1.67,2.39-2.69,2.5-3.92,.41-7.91,.55-11.84,.36-1.16-.06-2.26-1.55-3.38-2.38l.61-1.16Z" fill="#fff"/><path d="M66.5,47.85c3.14-6.6,8.92-9.47,14.09-13.37,1.45,5.91-6.97,14.15-14.09,13.37Z" fill="#fff"/></g><path d="M49.34,52.29c1.12-1.04,2.2-2.05,3.29-3.04,.35-.33,.57-.72,.67-1.18,.31-1.43,.64-2.86,.97-4.34,.15,.08,.27,.14,.39,.2,1.13,.63,2.27,1.26,3.4,1.91,.5,.29,1.02,.39,1.59,.33,1.42-.15,2.84-.27,4.29-.41-.02,.15-.04,.27-.06,.39-.26,1.31-.51,2.62-.78,3.93-.11,.53-.05,1.01,.17,1.5,.54,1.22,1.07,2.45,1.61,3.68,.04,.09,.07,.19,.11,.32-.51,.06-.99,.13-1.47,.18-.96,.11-1.91,.23-2.87,.34-.53,.06-.98,.26-1.38,.62-.97,.88-1.96,1.74-2.94,2.6-.1,.09-.21,.17-.38,.31-.36-.81-.7-1.57-1.04-2.33-.25-.55-.5-1.1-.75-1.65-.22-.49-.54-.86-1.01-1.13-1.25-.73-2.5-1.47-3.8-2.24Z" fill="#fff"/></g><g><g><path d="M109.55,62.48c-3.48-.83-6.95-1.72-10.43-2.5-1.19-.27-2.38-.53-3.57-.77-.56,1.93-1.12,3.87-1.66,5.8-.26,.95-.31,2.04-.17,3.07,.05,.47,.15,.92,.28,1.34,1.16,3.77,5.01,6.43,8.89,6.48,4.27,.04,7.65-2.29,9.13-6.59,.67-1.94,1.27-3.9,1.86-5.86-1.44-.31-2.89-.62-4.33-.97Zm-.78,6.24c-.84,.65-1.66,1.3-2.51,1.92-.32,.26-.54,.58-.65,.97-.32,1.02-.63,2.01-.95,3.01-.04,.06-.06,.15-.11,.24-.35-.22-.65-.43-.97-.63-.63-.45-1.25-.86-1.86-1.3-.35-.24-.71-.35-1.12-.35-1.04,.02-2.08,.02-3.09,.02h-.39c.22-.67,.41-1.3,.58-1.92,.15-.45,.28-.91,.41-1.34,.13-.41,.13-.8,0-1.21-.37-1.08-.74-2.16-1.1-3.26,1.19-.04,2.36-.09,3.52-.11,.37,0,.69-.13,.99-.37,.93-.67,1.86-1.34,2.81-2.03,.04,.11,.09,.19,.13,.3,.32,.95,.69,1.92,1.02,2.88,.15,.43,.39,.76,.76,1.02,.93,.65,1.84,1.3,2.77,1.97-.09,.06-.17,.13-.24,.19Z" fill="#fff" stroke="#fff" stroke-miterlimit="10" stroke-width="1.13"/><path d="M87.78,56.25c.31-1.2-.42-2.36-1.6-2.74-.97-.31-1.43-1.03-1.07-2.67,1.04-4.8,1.42-5.49,4.05-5.57,.29,0,1.32-.38,1.56-.48,1.26-.53,2.74,.12,3.12,1.43,.11,.38,.16,.75,.08,1.09-1.49,6.65-3.26,13.24-4.86,19.87-.18,.73-.32,1.47-.44,2.22-.74,4.84,2.31,9.46,7.03,10.75,3.23,.88,6.48,1.69,9.75,2.39,4.84,1.04,8.36-1.14,9.6-5.88,1.96-7.52,3.8-15.07,5.75-22.6,.34-1.31,.51-3.29,2.57-2.58,.89,.31,1.56,1.26,2.13,2.25,.24,.41,.6,.74,1.04,.94,2.27,1.05,2.06,1.4,1.04,5.92-.45,1.99-1.29,2.68-2.62,2.49-1.22-.17-2.38,.53-2.68,1.72-.75,3.03-1.48,5.94-2.2,8.85-2.65,10.68-5.67,13.4-15.72,12.98-1.09-.05-2.07,.66-2.36,1.71-.45,1.67-.91,3.34-1.12,5.04-.1,.78,.8,2.02,1.59,2.5,1.96,1.18,4.16,1.97,6.19,3.06,1.6,.86,2.95,2.14,2.12,4.16-.83,2.04-2.58,1.89-4.41,1.43-7.72-1.97-15.46-3.89-23.19-5.83-1.73-.43-3.67-.9-3.42-3.14,.27-2.43,2.34-2.81,4.36-2.76,2.01,.04,4.04,.13,6.02,.43,1.96,.3,2.82-.46,3.18-2.31,.26-1.33,.6-2.64,.96-4.02,.3-1.14-.3-2.32-1.39-2.75-.09-.03-.18-.07-.26-.1-6.31-2.54-9.38-7.78-8.05-14.42,.88-4.39,2.07-8.71,3.27-13.36Z" fill="#fff" stroke="#fff" stroke-miterlimit="10" stroke-width="2.89"/><path d="M87.68,56.43c.31-1.2-.42-2.36-1.6-2.74-.97-.31-1.43-1.03-1.07-2.67,1.04-4.8,1.42-5.49,4.05-5.57,.29,0,1.32-.38,1.56-.48,1.26-.53,2.74,.12,3.12,1.43,.11,.38,.16,.75,.08,1.09-1.49,6.65-3.26,13.24-4.86,19.87-.18,.73-.32,1.47-.44,2.22-.74,4.84,2.31,9.46,7.03,10.75,3.23,.88,6.48,1.69,9.75,2.39,4.84,1.04,8.36-1.14,9.6-5.88,1.96-7.52,3.8-15.07,5.75-22.6,.34-1.31,.51-3.29,2.57-2.58,.89,.31,1.56,1.26,2.13,2.25,.24,.41,.6,.74,1.04,.94,2.27,1.05,2.06,1.4,1.04,5.92-.45,1.99-1.29,2.68-2.62,2.49-1.22-.17-2.38,.53-2.68,1.72-.75,3.03-1.48,5.94-2.2,8.85-2.65,10.68-5.67,13.4-15.72,12.98-1.09-.05-2.07,.66-2.36,1.71-.45,1.67-.91,3.34-1.12,5.04-.1,.78,.8,2.02,1.59,2.5,1.96,1.18,4.16,1.97,6.19,3.06,1.6,.86,2.95,2.14,2.12,4.16-.83,2.04-2.58,1.89-4.41,1.43-7.72-1.97-15.46-3.89-23.19-5.83-1.73-.43-3.67-.9-3.42-3.14,.27-2.43,2.34-2.81,4.36-2.76,2.01,.04,4.04,.13,6.02,.43,1.96,.3,2.82-.46,3.18-2.31,.26-1.33,.6-2.64,.96-4.02,.3-1.14-.3-2.32-1.39-2.75-.09-.03-.18-.07-.26-.1-6.31-2.54-9.38-7.78-8.05-14.42,.88-4.39,2.07-8.71,3.27-13.36Z" fill="#fff"/></g><rect x="100.42" y="9.18" width="22" height="51.13" rx="11" ry="11" transform="translate(11.38 -25.36) rotate(13.68)" fill="#fff"/></g></g></svg>