<?xml version="1.0" encoding="UTF-8"?><svg id="b" xmlns="http://www.w3.org/2000/svg" viewBox="0 0 130.47 115.65"><g id="c"><g><path d="M64.29,115.65c-13.63-.28-26.2-5.18-37.32-13.83-5.23-4.06-8.78-9.62-11.95-15.37-.85-1.53-1.95-3.06-2.25-4.72-.44-2.41,.59-4.64,2.19-6.54,3.17-3.75,3.07-4.65-.79-7.73-1.21-.97-2.37-2.01-3.64-2.89-2.4-1.67-3.43-4.01-3.42-6.81,0-3.15-1.32-5.63-3.47-7.8-.97-.98-1.92-2.01-2.71-3.13-1.36-1.92-1.28-3.45,.52-4.98,1.8-1.54,3.86-2.75,5.76-4.18,4.13-3.12,7.33-7.08,9.76-11.6C23.43,14.07,33.77,6.98,46.36,2.8,53.9,.3,61.7-.21,69.61,.07c11.4,.4,21.67,3.76,30.57,11.03,5.91,4.82,11.27,10.15,15.38,16.63,2.25,3.55,2.14,5.29-.44,8.71-.73,.97-1.42,1.98-2.04,3.01-.89,1.48-.69,2.89,.6,4.02,1.24,1.09,2.48,2.23,3.9,3.07,3.96,2.34,6.33,5.59,5.82,10.31-.41,3.77,1.24,6.49,3.71,8.98,.93,.94,1.82,1.93,2.64,2.97,.94,1.19,.98,2.55-.09,3.61-1.91,1.9-3.87,3.78-5.99,5.44-2.92,2.27-5.44,4.81-7.33,8.03-6.6,11.23-15.8,19.69-27.51,25.38-5.03,2.44-10.4,3.61-15.97,3.89-2.65,.14-5.3,.31-8.57,.5Zm1.51-6.72c1.57-.13,3.52-.2,5.43-.47,7.25-1.02,13.94-3.67,20.32-7.2,6.59-3.65,12.31-8.27,16.3-14.76,2.82-4.59,6.54-8.17,11.13-10.94,1.18-.71,2.3-1.54,3.33-2.45,1.5-1.32,1.63-2.31,.37-3.87-1.32-1.63-2.85-3.09-4.27-4.64-1.52-1.67-2.43-3.66-2.11-5.89,.64-4.51-.94-8-4.42-10.74-1.48-1.16-3.01-2.25-4.51-3.37-1.68-1.25-1.85-2.95-1.22-4.75,.51-1.45,1.1-2.9,1.86-4.23,1.33-2.32,.99-4.4-.43-6.51-4.76-7.09-11.03-12.49-18.49-16.52-8.47-4.58-17.55-6.58-27.16-5.55-4.48,.48-9.03,.97-13.33,2.23-10.35,3.02-17.96,9.99-24.32,18.38-4,5.28-8.2,10.29-13.78,13.99-3.57,2.37-3.63,3.48-.53,6.45,2.43,2.32,4.16,4.91,4.06,8.53-.06,2.23,.81,4.4,2.41,6.02,1.89,1.92,3.94,3.7,6,5.46,2.3,1.95,2.65,3.65,1.04,6.18-.68,1.07-1.47,2.08-2.21,3.11-1.69,2.34-1.71,3.67,.06,5.98,1.38,1.8,2.84,3.53,4.26,5.3,3.05,3.79,6.05,7.62,9.97,10.63,8.84,6.79,19.07,9.14,30.27,9.66Z" fill="#fff"/><path d="M67.63,94.57c-12.1-.07-21.1-3.26-28.6-10.47-2-1.92-2.47-3.96-1.54-6.42,.45-1.18,1.02-2.31,1.58-3.45,1.15-2.32,.87-3.65-1.17-5.17-2.09-1.55-4.18-3.09-6.31-4.58-2.5-1.75-3.65-4.05-3.27-7.12,.21-1.69,1.17-2.63,2.95-2.73,2.31-.12,3.1,.29,3.28,2.26,.35,3.77,3.03,5.73,5.66,7.77,1.7,1.32,3.49,2.54,5.13,3.93,2.1,1.78,2.29,2.84,1.33,5.4-.39,1.03-.74,2.08-1.12,3.11-.64,1.76-.02,3.17,1.3,4.29,3.9,3.3,8.42,5.26,13.49,5.83,2.47,.28,4.97,.18,7.45,.39,3.43,.29,6.64-.49,9.58-2.11,7.26-4,14.46-8.11,21.63-12.26,2.23-1.29,2.58-3.61,1.07-5.71-1.54-2.14-3.52-4.01-3.96-6.79-.15-.92-.4-1.84-.47-2.77-.1-1.26,.38-2.31,1.55-2.87,1.2-.57,3.29-.15,3.93,.91,.49,.82,.99,1.84,.94,2.74-.17,3.18,1.43,5.34,3.68,7.24,.59,.49,1.19,1.01,1.63,1.63,1.25,1.77,1.22,3.47-.42,4.89-2.25,1.95-4.71,3.66-7.09,5.45-4.42,3.32-8.77,6.74-13.29,9.91-6.21,4.35-13.07,6.87-18.94,6.7Z" fill="#fff"/><path d="M50.57,25.02c3.08-.5,7.29,3.66,7.02,7.57-.11,1.58-1.49,3.14-2.5,4.57-.76,1.07-1.87,1.88-2.79,2.84-2.13,2.25-2.32,4.43-.63,7.04,.33,.51,.69,1,1.03,1.5,.72,1.05,1.25,2.14,.31,3.32-.92,1.16-2.11,1.8-3.62,1.48-.69-.15-1.39-.39-1.99-.76-3.77-2.3-7.54-4.62-11.25-7-2.18-1.4-2.34-2.37-.74-4.46,.87-1.13,1.89-2.16,2.98-3.08,3.06-2.58,5.38-5.68,7.04-9.31,1.21-2.66,2.77-3.72,5.14-3.72Z" fill="#fff"/><path d="M80.83,24.94c.36,.21,1.2,.46,1.66,1.02,1.4,1.7,2.71,3.48,3.94,5.31,1.05,1.56-.1,2.75-1,3.82-1.35,1.61-2.83,3.11-4.28,4.64-2.33,2.46-2.34,4.41-.07,6.94,.61,.68,1.21,1.48,1.49,2.33,.27,.86,.49,2.42,.1,2.66-1.01,.64-2.6,1.3-3.55,.93-3.27-1.29-6.37-3-9.51-4.61-1.52-.78-3.01-1.65-4.42-2.6-1.7-1.14-2.02-2.37-.92-4.09,.75-1.18,1.69-2.39,2.83-3.13,3.53-2.3,5.61-5.72,7.74-9.15,1.27-2.06,2.82-3.84,6-4.06Z" fill="#fff"/></g></g></svg>